<svg width="21" height="21" viewBox="0 0 21 21" fill="none" xmlns="http://www.w3.org/2000/svg">
<path d="M20.5241 5.06097C20.2878 5.80385 19.9693 6.45047 19.5703 7.0376L19.5869 7.01135C19.1949 7.66468 18.7268 8.41951 18.1826 9.27585C17.7159 9.95193 17.4689 10.3019 17.4414 10.3258C17.3207 10.4772 17.2367 10.6627 17.2078 10.8666L17.2069 10.8727C17.2306 11.0582 17.3163 11.2201 17.4414 11.3408L17.7914 11.7311C19.6639 13.6555 20.7171 14.982 20.9511 15.7106C20.9817 15.7911 20.9992 15.8838 20.9992 15.981C20.9992 16.1507 20.9449 16.3073 20.8531 16.436L20.8548 16.4333C20.7008 16.5917 20.4856 16.6897 20.2476 16.6897C20.2213 16.6897 20.1942 16.6888 20.1688 16.6862H20.1723H17.8702C17.8693 16.6862 17.8676 16.6862 17.8658 16.6862C17.5709 16.6862 17.2997 16.583 17.0871 16.4115L17.0897 16.4132C16.7799 16.1586 16.5043 15.883 16.2576 15.5837L16.2497 15.5732C15.8466 15.1176 15.489 14.7341 15.1769 14.4226C14.1374 13.4344 13.3704 12.9403 12.8757 12.9403C12.8573 12.9386 12.8363 12.9377 12.8144 12.9377C12.6701 12.9377 12.5353 12.9823 12.4242 13.0585L12.4268 13.0567C12.3358 13.1705 12.2807 13.3175 12.2807 13.4758C12.2807 13.5073 12.2824 13.5371 12.2868 13.5677V13.5642C12.2632 13.839 12.2492 14.1583 12.2492 14.4812C12.2492 14.5853 12.2509 14.6886 12.2536 14.7918V14.777V15.7911C12.2623 15.8322 12.2676 15.8795 12.2676 15.9276C12.2676 16.1393 12.1713 16.3283 12.0208 16.4535L12.0199 16.4543C11.6813 16.6092 11.2858 16.7002 10.8684 16.7002C10.7792 16.7002 10.6917 16.6958 10.6051 16.688L10.6164 16.6888C9.23919 16.6626 7.96169 16.2592 6.87581 15.5793L6.90644 15.5968C5.58431 14.7936 4.48881 13.748 3.65406 12.5125L3.63044 12.4757C2.83769 11.424 2.09831 10.2357 1.46831 8.98272L1.40706 8.84797C1.03869 8.14622 0.657186 7.28347 0.328186 6.39622L0.275686 6.23435C0.141811 5.83535 0.0446855 5.3716 0.00443555 4.89122L0.00268555 4.86935C0.00268555 4.42718 0.262852 4.2061 0.783185 4.2061H3.08444C3.10544 4.20435 3.12994 4.20347 3.15531 4.20347C3.37231 4.20347 3.57269 4.27785 3.73106 4.40297L3.72931 4.40122C3.90431 4.59285 4.03381 4.82822 4.09769 5.09072L4.10031 5.10122C4.52381 6.29735 4.97269 7.30185 5.48894 8.26435L5.43031 8.14447C5.85206 8.99322 6.31844 9.72385 6.85044 10.3985L6.83031 10.3713C7.29698 10.9442 7.66098 11.2306 7.92231 11.2306C7.93019 11.2315 7.93981 11.2315 7.95031 11.2315C8.07981 11.2315 8.19269 11.1615 8.25393 11.0565L8.25481 11.0547C8.31956 10.8885 8.35719 10.6951 8.35719 10.4938C8.35719 10.451 8.35544 10.4081 8.35194 10.3661V10.3713V6.97722C8.33356 6.57735 8.23556 6.20372 8.07194 5.8686L8.07894 5.88522C7.97044 5.65422 7.84006 5.45472 7.68519 5.2771L7.68781 5.2806C7.54431 5.1371 7.44631 4.94897 7.41569 4.73897L7.41481 4.73372C7.41481 4.58497 7.48306 4.4511 7.58981 4.3636L7.59069 4.36272C7.69656 4.2656 7.83831 4.20697 7.99319 4.20697H8.00019H11.6279C11.6472 4.20435 11.6691 4.20347 11.6918 4.20347C11.8624 4.20347 12.0156 4.28047 12.1171 4.40122L12.1179 4.4021C12.2081 4.5666 12.2614 4.76347 12.2614 4.97172C12.2614 5.00497 12.2597 5.03735 12.2571 5.06972V5.06535V9.59172C12.2553 9.61272 12.2544 9.63722 12.2544 9.66172C12.2544 9.82272 12.2991 9.9741 12.3761 10.1027L12.3743 10.0992C12.4382 10.1937 12.5449 10.255 12.6657 10.255H12.6666C12.8206 10.2445 12.9606 10.1937 13.0787 10.1132L13.0761 10.115C13.3141 9.95135 13.5188 9.76497 13.6964 9.5541L13.6999 9.54972C14.2311 8.94947 14.7211 8.28622 15.1481 7.58097L15.1822 7.51972C15.4832 7.02097 15.8087 6.40672 16.1036 5.77585L16.1578 5.64722L16.5481 4.86672C16.6837 4.47647 17.0477 4.20172 17.4756 4.20172C17.4922 4.20172 17.5088 4.20172 17.5254 4.2026H17.5228H19.8249C20.4468 4.2026 20.6801 4.48872 20.5249 5.06097H20.5241Z" fill="#F0E3CA"/>
</svg>
